<svg t="1677573246437" class="icon" viewBox="0 0 1025 1024" version="1.1" xmlns="http://www.w3.org/2000/svg" p-id="13522" width="200" height="200"><path d="M877.847 535.273c-45.056 0-112.43-11.846-139.939-43.73-27.461 31.884-71.028 43.73-116.06 43.73-44.987 0-82.293-11.823-109.778-43.706-27.509 31.883-54.668 43.706-99.677 43.706-44.986 0-98.723-11.823-126.232-43.73-27.485 31.907-84.736 43.73-129.768 43.73C73.68 535.273 0.047 475.532 0.047 391.936c0-2.374 0.232-4.678 0.651-6.912a37.562 37.562 0 0 1 0.768-17.338L91.857 48.71C111.663 0.21 148.247 0 177.804 0H845.59c30.604 0 71.238 0.21 86.249 47.593l90.833 332.45a36.963 36.963 0 0 1 1.327 11.52c0 0.117 0 0.257 0.023 0.373 0 83.596-63.558 143.337-146.176 143.337z m0-465.455c-4.817-0.233-18.688-0.14-23.272 0h-674.91c-5.771-0.07-18.757-0.302-23.272 0L73.356 385.187c0.395 2.188 0.605 4.445 0.605 6.749 0 42.356 34.071 76.87 75.985 76.87s99.258-34.514 99.258-76.87c0-20.666 16.547-37.423 36.957-37.423s36.958 16.757 36.958 37.423c0 42.356 34.07 76.87 75.985 76.87 41.89 0 75.985-34.514 75.985-76.87 0-20.666 16.547-37.423 36.958-37.423 20.386 0 36.933 16.757 36.933 37.423 0 42.356 34.095 76.87 75.986 76.87 41.844 0 75.915-34.514 75.915-76.87 0-20.666 16.547-37.423 36.958-37.423h0.069c20.387 0 36.957 16.757 36.957 37.423 0 42.356 57.414 76.87 99.328 76.87 40.96 0 74.473-33.094 75.846-74.24L877.847 69.818zM116.76 605.37c20.387 0 36.957 16.78 36.957 37.423v183.203c0 41.472 31.535 81.64 72.495 81.64h186.182c20.387 0 33.49 10.357 33.49 31 0 20.666-16.478 37.422-36.888 37.422H227.98c-81.664 0-141.405-55.459-141.405-138.24V651.636c0-20.666 9.774-46.266 30.184-46.266z m367.477-13.614c11.008-9.426 25.18-14.616 39.89-14.616a60.85 60.85 0 0 1 36.211 11.986c9.659-7.75 21.76-11.986 34.351-11.986 12.567 0 24.67 4.236 34.35 11.986 10.403-7.75 23.157-11.986 36.19-11.986 14.708 0 28.881 5.19 39.89 14.616 11.007 9.425 17.966 22.272 19.595 36.189l0.07 1.163v119.506c0 22.318-6.982 43.776-20.224 62.045-11.404 15.756-26.904 28.37-44.894 36.538l-0.023 124.835c0 28.649-24.273 51.968-54.109 51.968H583.82c-29.836 0-54.11-23.32-54.11-51.968V847.197c-18.013-8.192-33.489-20.782-44.916-36.538-13.219-18.27-20.2-39.727-20.2-62.045V628.527l0.07-0.582c1.605-13.917 8.564-26.764 19.572-36.19z m26.577 151.668c0 29.3 17.804 55.04 44.311 64.047 14.243 4.84 21.644 14.94 20.853 28.462-0.024 0.163-0.024 0.303-0.024 0.396v130.513c0 6.935 5.958 12.567 13.312 12.567h10.846c7.33 0 13.312-5.632 13.312-12.567V835.444c-0.14-19.293 15.08-25.6 20.805-27.973 26.927-11.171 44.312-36.306 44.312-64.047V630.016c-3.328-4.631-11.497-8.285-18.735-8.285-7.238 0-15.406 3.654-18.734 8.285v97.815c0 4.515-3.77 8.192-8.402 8.192h-10.845c-4.655 0-8.401-3.677-8.401-8.192v-97.815c-3.352-4.631-11.52-8.285-18.735-8.285-7.238 0-15.407 3.654-18.758 8.285l0.023 97.815c0 4.515-3.77 8.192-8.401 8.192h-10.868c-4.632 0-8.402-3.677-8.402-8.192v-97.815c-3.328-4.631-11.497-8.285-18.734-8.285-7.215 0-15.407 3.654-18.735 8.285v113.408zM883.06 577.14h32.559c17.873 0 32.419 13.987 32.419 31.186v363.706c0 28.649-24.297 51.968-54.133 51.968h-21.713c-29.836 0-54.11-23.32-54.11-51.968v-75.916c-14.033-3.98-26.46-11.683-36.049-22.365-11.752-13.102-18.222-29.882-18.222-47.197V691.456c0-30.557 12.428-59.299 34.979-80.896 22.528-21.55 52.433-33.42 84.27-33.42z m-73.006 239.011c0 17.874 12.777 33.257 31.069 37.423 0.186 0.023 5.748 1.21 11.357 4.724 7.75 4.864 11.846 11.87 11.846 20.2v88.344c0 6.935 5.958 12.567 13.312 12.567h10.845c7.33 0 13.312-5.632 13.312-12.567V627.968c0-3.444-3.002-6.237-6.68-6.237H883.06c-14.801 0-32.86 8.425-47.127 21.993-16.686 15.895-25.88 36.538-25.88 58.135V816.15z" p-id="13523"></path></svg>